<?xml version="1.0" encoding="UTF-8" standalone="no"?>
<!-- Created with Inkscape (http://www.inkscape.org/) -->

<svg
   xmlns:dc="http://purl.org/dc/elements/1.1/"
   xmlns:cc="http://creativecommons.org/ns#"
   xmlns:rdf="http://www.w3.org/1999/02/22-rdf-syntax-ns#"
   xmlns:svg="http://www.w3.org/2000/svg"
   xmlns="http://www.w3.org/2000/svg"
   xmlns:sodipodi="http://sodipodi.sourceforge.net/DTD/sodipodi-0.dtd"
   xmlns:inkscape="http://www.inkscape.org/namespaces/inkscape"
   width="434"
   height="45"
   viewBox="0 0 434.00001 44.999999"
   id="svg5421"
   version="1.1"
   inkscape:version="0.91 r13725"
   sodipodi:docname="freeContent.svg"
   inkscape:export-filename="\\VBOXSVR\Desktop\svgWorkspace\freeContent_dark.png"
   inkscape:export-xdpi="90"
   inkscape:export-ydpi="90">
  <defs
     id="defs5423" />
  <sodipodi:namedview
     id="base"
     pagecolor="#ffffff"
     bordercolor="#666666"
     borderopacity="1.0"
     inkscape:pageopacity="0.0"
     inkscape:pageshadow="2"
     inkscape:zoom="2.8284271"
     inkscape:cx="124.05563"
     inkscape:cy="-52.467743"
     inkscape:document-units="px"
     inkscape:current-layer="layer1"
     showgrid="true"
     units="px"
     inkscape:window-width="1920"
     inkscape:window-height="1068"
     inkscape:window-x="-8"
     inkscape:window-y="-8"
     inkscape:window-maximized="1"
     showguides="false">
    <inkscape:grid
       type="xygrid"
       id="grid5969" />
  </sodipodi:namedview>
  <metadata
     id="metadata5426">
    <rdf:RDF>
      <cc:Work
         rdf:about="">
        <dc:format>image/svg+xml</dc:format>
        <dc:type
           rdf:resource="http://purl.org/dc/dcmitype/StillImage" />
        <dc:title></dc:title>
      </cc:Work>
    </rdf:RDF>
  </metadata>
  <g
     inkscape:label="Layer 1"
     inkscape:groupmode="layer"
     id="layer1"
     transform="translate(0,-1007.3622)">
    <g
       id="g6182"
       transform="translate(4.7262e-6,30.001095)"
       style="fill:#373d4b;fill-opacity:1">
      <g
         style="fill:#373d4b;fill-opacity:1"
         transform="matrix(1.2521134,0,0,-1.249136,8.5056016,977.36223)"
         id="g6448">
        <path
           id="path6450"
           style="fill:#373d4b;fill-opacity:1;fill-rule:evenodd;stroke:none"
           d="m 0,0 20.963,0 0,-22.049 C 22.164,-14.783 23.195,-7.35 24.311,0 l 20.964,0 0,-36.024 -19.783,0 0,30.906 C 23.877,-15.348 22.32,-25.64 20.865,-36.024 l -19.681,0 0,32.187 c -2.13,-10.642 -4.026,-21.507 -6.108,-32.187 l -1.869,0 c 2.242,11.898 4.472,23.809 6.693,35.728 C -0.109,-0.153 -0.115,-0.017 0,0"
           inkscape:connector-curvature="0" />
      </g>
      <g
         id="text6054"
         style="font-style:normal;font-weight:normal;font-size:35.69894791px;line-height:125%;font-family:sans-serif;letter-spacing:0px;word-spacing:0px;fill:#373d4b;fill-opacity:1;stroke:none;stroke-width:1px;stroke-linecap:butt;stroke-linejoin:miter;stroke-opacity:1">
        <path
           id="path6134"
           style="font-style:normal;font-variant:normal;font-weight:normal;font-stretch:normal;font-family:BodegaSans-Medium;-inkscape-font-specification:BodegaSans-Medium;letter-spacing:1.5px;fill:#373d4b;fill-opacity:1"
           d="m 89.315261,1021.999 0,-14.7079 -2.427529,7.2468 -1.642151,0 -2.427529,-7.2468 0,14.7079 -3.641292,0 0,-27.55956 1.820646,0 5.06925,14.35096 5.10495,-14.35096 1.820646,0 0,27.55956 -3.676991,0 z"
           inkscape:connector-curvature="0" />
        <path
           id="path6136"
           style="font-style:normal;font-variant:normal;font-weight:normal;font-stretch:normal;font-family:BodegaSans-Medium;-inkscape-font-specification:BodegaSans-Medium;letter-spacing:1.5px;fill:#373d4b;fill-opacity:1"
           d="m 104.71889,1021.999 -0.67828,-4.8907 -3.78409,0 -0.642584,4.8907 -3.355701,0 4.176775,-27.55956 3.64129,0 4.17678,27.55956 -3.53419,0 z m -2.57033,-19.4559 -1.49935,11.5308 2.99871,0 -1.49936,-11.5308 z"
           inkscape:connector-curvature="0" />
        <path
           id="path6138"
           style="font-style:normal;font-variant:normal;font-weight:normal;font-stretch:normal;font-family:BodegaSans-Medium;-inkscape-font-specification:BodegaSans-Medium;letter-spacing:1.5px;fill:#373d4b;fill-opacity:1"
           d="m 121.34799,1021.999 -6.17592,-15.7075 0,15.7075 -3.64129,0 0,-27.55956 1.82065,0 6.14021,15.81466 0,-15.81466 3.677,0 0,27.55956 -1.82065,0 z"
           inkscape:connector-curvature="0" />
        <path
           id="path6140"
           style="font-style:normal;font-variant:normal;font-weight:normal;font-stretch:normal;font-family:BodegaSans-Medium;-inkscape-font-specification:BodegaSans-Medium;letter-spacing:1.5px;fill:#373d4b;fill-opacity:1"
           d="m 137.83876,1021.999 -6.17592,-15.7075 0,15.7075 -3.64129,0 0,-27.55956 1.82064,0 6.14022,15.81466 0,-15.81466 3.67699,0 0,27.55956 -1.82064,0 z"
           inkscape:connector-curvature="0" />
        <path
           id="path6142"
           style="font-style:normal;font-variant:normal;font-weight:normal;font-stretch:normal;font-family:BodegaSans-Medium;-inkscape-font-specification:BodegaSans-Medium;letter-spacing:1.5px;fill:#373d4b;fill-opacity:1"
           d="m 144.51232,1021.999 0,-27.55956 3.78408,0 0,27.55956 -3.78408,0 z"
           inkscape:connector-curvature="0" />
        <path
           id="path6144"
           style="font-style:normal;font-variant:normal;font-weight:normal;font-stretch:normal;font-family:BodegaSans-Medium;-inkscape-font-specification:BodegaSans-Medium;letter-spacing:1.5px;fill:#373d4b;fill-opacity:1"
           d="m 162.94143,1021.999 -6.17592,-15.7075 0,15.7075 -3.64129,0 0,-27.55956 1.82064,0 6.14022,15.81466 0,-15.81466 3.67699,0 0,27.55956 -1.82064,0 z"
           inkscape:connector-curvature="0" />
        <path
           id="path6146"
           style="font-style:normal;font-variant:normal;font-weight:normal;font-stretch:normal;font-family:BodegaSans-Medium;-inkscape-font-specification:BodegaSans-Medium;letter-spacing:1.5px;fill:#373d4b;fill-opacity:1"
           d="m 181.07435,1021.1779 q -0.57119,0.357 -1.60646,0.6783 -0.99957,0.3213 -2.46322,0.3213 -0.78538,0 -1.67785,-0.1785 -0.89248,-0.1785 -1.78495,-0.6783 -0.89248,-0.5354 -1.71355,-1.4636 -0.82108,-0.9639 -1.46366,-2.4989 -0.60688,-1.5708 -0.99957,-3.8198 -0.35699,-2.2491 -0.35699,-5.3549 0,-3.1058 0.35699,-5.3191 0.35699,-2.249 0.96387,-3.7841 0.60689,-1.57075 1.39226,-2.49893 0.78538,-0.96387 1.60645,-1.46365 0.85678,-0.49979 1.67786,-0.67828 0.85677,-0.1785 1.57075,-0.1785 0.49978,0 0.92817,0.0714 0.46409,0.0357 0.78538,0.1071 0.39269,0.0714 0.67828,0.14279 l 0,2.92732 q -0.39269,-0.0714 -0.78538,-0.1428 -0.39269,-0.0714 -0.89247,-0.0714 -0.60688,0 -1.39226,0.35699 -0.78538,0.35699 -1.46366,1.49936 -0.67828,1.1424 -1.14236,3.32 -0.46409,2.1419 -0.46409,5.7118 0,3.4985 0.39269,5.6405 0.42839,2.1419 1.07097,3.32 0.64258,1.178 1.39226,1.6064 0.74967,0.3927 1.46365,0.3927 l 0.28559,0 q 0.0714,0 0.1071,-0.036 l 0,-5.7118 q 0,-1.1067 -0.1428,-1.7493 -0.10709,-0.6783 -0.32129,-1.0352 -0.21419,-0.357 -0.53548,-0.4641 -0.28559,-0.1428 -0.67828,-0.1428 -0.17849,0 -0.32129,0 -0.1428,0 -0.28559,0.036 l 0,-2.9987 q 0.17849,0 0.35699,-0.036 0.17849,-0.036 0.39269,-0.036 0.21419,-0.036 0.49978,-0.036 2.07054,0 3.32,1.535 1.24947,1.5351 1.24947,5.2478 l 0,7.461 0,0 z"
           inkscape:connector-curvature="0" />
        <path
           id="path6148"
           style="font-style:normal;font-variant:normal;font-weight:normal;font-stretch:normal;font-family:BodegaSans-Medium;-inkscape-font-specification:BodegaSans-Medium;letter-spacing:1.5px;fill:#373d4b;fill-opacity:1"
           d="m 195.78249,997.47385 0,12.42325 4.17677,0 0,3.0344 -4.17677,0 0,9.0675 -3.78409,0 0,-9.0675 -1.17807,0 0,-3.0344 1.17807,0 0,-15.45766 9.06753,0 0,3.03441 -5.28344,0 z"
           inkscape:connector-curvature="0" />
        <path
           id="path6150"
           style="font-style:normal;font-variant:normal;font-weight:normal;font-stretch:normal;font-family:BodegaSans-Medium;-inkscape-font-specification:BodegaSans-Medium;letter-spacing:1.5px;fill:#373d4b;fill-opacity:1"
           d="m 215.22456,1002.7573 q 0,1.9991 -0.46409,3.4985 -0.42839,1.4993 -1.03527,2.5703 -0.60688,1.071 -1.28516,1.7493 -0.67828,0.6425 -1.14237,0.9638 0.60688,0.7497 1.32086,1.8564 0.71398,1.0709 1.24947,2.4275 0.67828,1.6065 0.89247,3.1772 0.24989,1.5708 0.24989,2.9987 l -3.71269,0 q 0,-1.178 -0.21419,-2.4275 -0.1785,-1.2852 -0.64258,-2.4275 -0.49979,-1.2138 -1.10667,-2.1777 -0.60688,-0.9638 -1.10667,-1.535 l 0,8.5677 -3.78409,0 0,-27.55956 2.96302,0 q 1.49935,0 2.89161,0.42838 1.42796,0.42839 2.49893,1.39226 1.10666,0.96387 1.74925,2.57033 0.67828,1.57079 0.67828,3.92689 z m -3.78409,0.036 q 0,-1.5351 -0.28559,-2.5346 -0.2499,-1.03531 -0.71398,-1.64219 -0.42839,-0.60688 -0.99957,-0.85677 -0.57119,-0.24989 -1.21377,-0.24989 l 0,12.13765 q 0.28559,-0.036 0.82108,-0.4641 0.53548,-0.4284 1.07097,-1.2495 0.53548,-0.821 0.92817,-2.1062 0.39269,-1.2852 0.39269,-3.0344 z"
           inkscape:connector-curvature="0" />
        <path
           id="path6152"
           style="font-style:normal;font-variant:normal;font-weight:normal;font-stretch:normal;font-family:BodegaSans-Medium;-inkscape-font-specification:BodegaSans-Medium;letter-spacing:1.5px;fill:#373d4b;fill-opacity:1"
           d="m 219.1928,1021.999 0,-9.0675 -1.17807,0 0,-3.0344 1.17807,0 0,-15.45766 9.06753,0 0,3.03441 -5.28344,0 0,12.42325 4.17677,0 0,3.0344 -4.17677,0 0,6.0331 5.28344,0 0,3.0344 -9.06753,0 z"
           inkscape:connector-curvature="0" />
        <path
           id="path6154"
           style="font-style:normal;font-variant:normal;font-weight:normal;font-stretch:normal;font-family:BodegaSans-Medium;-inkscape-font-specification:BodegaSans-Medium;letter-spacing:1.5px;fill:#373d4b;fill-opacity:1"
           d="m 231.77899,1021.999 0,-9.0675 -1.17806,0 0,-3.0344 1.17806,0 0,-15.45766 9.06754,0 0,3.03441 -5.28345,0 0,12.42325 4.17678,0 0,3.0344 -4.17678,0 0,6.0331 5.28345,0 0,3.0344 -9.06754,0 z"
           inkscape:connector-curvature="0" />
        <path
           id="path6156"
           style="font-style:normal;font-variant:normal;font-weight:normal;font-stretch:normal;font-family:BodegaSans-Medium;-inkscape-font-specification:BodegaSans-Medium;letter-spacing:1.5px;fill:#373d4b;fill-opacity:1"
           d="m 259.4241,1021.9276 q -0.24989,0.071 -0.53548,0.1428 -0.49979,0.1071 -1.32086,0.1071 -0.71398,0 -1.57076,-0.1428 -0.82107,-0.1428 -1.67785,-0.6069 -0.82107,-0.4997 -1.60645,-1.4279 -0.78538,-0.9282 -1.39226,-2.4632 -0.60688,-1.5708 -0.96387,-3.8555 -0.35699,-2.2848 -0.35699,-5.4977 0,-3.2129 0.35699,-5.4619 0.35699,-2.2847 0.96387,-3.8198 0.60688,-1.57075 1.39226,-2.46322 0.78538,-0.92818 1.60645,-1.39226 0.85678,-0.49979 1.67785,-0.64258 0.85678,-0.1428 1.57076,-0.1428 0.39269,0 0.71398,0.0357 0.35699,0.0357 0.60688,0.1071 0.28559,0.0714 0.53548,0.10709 l 0,2.96302 q -0.28559,-0.0714 -0.60688,-0.1071 -0.28559,-0.0714 -0.67828,-0.0714 -0.60688,0 -1.35656,0.35699 -0.74968,0.32129 -1.42796,1.46366 -0.64258,1.1067 -1.10667,3.2843 -0.42838,2.1419 -0.42838,5.7832 0,3.677 0.42838,5.8547 0.46409,2.1419 1.14237,3.2843 0.67828,1.1423 1.42796,1.4993 0.74968,0.3213 1.39226,0.3213 0.35699,0 0.64258,-0.036 0.28559,-0.036 0.57118,-0.1071 l 0,2.9273 0,0 z"
           inkscape:connector-curvature="0" />
        <path
           id="path6158"
           style="font-style:normal;font-variant:normal;font-weight:normal;font-stretch:normal;font-family:BodegaSans-Medium;-inkscape-font-specification:BodegaSans-Medium;letter-spacing:1.5px;fill:#373d4b;fill-opacity:1"
           d="m 274.48859,1008.2192 q 0,4.4624 -0.57118,7.2112 -0.53549,2.7488 -1.42796,4.2482 -0.85678,1.4993 -1.99914,1.9991 -1.10667,0.4998 -2.24904,0.4998 -1.14236,0 -2.28473,-0.4998 -1.10667,-0.4998 -1.99914,-1.9991 -0.89247,-1.4994 -1.46366,-4.2482 -0.53548,-2.7488 -0.53548,-7.2112 0,-4.4623 0.53548,-7.2112 0.57119,-2.74878 1.46366,-4.24813 0.89247,-1.49936 1.99914,-1.99914 1.14237,-0.49979 2.28473,-0.49979 1.14237,0 2.24904,0.49979 1.14236,0.49978 1.99914,1.99914 0.89247,1.49935 1.42796,4.24813 0.57118,2.7489 0.57118,7.2112 z m -3.78409,0 q 0,-3.4271 -0.21419,-5.569 -0.2142,-2.1419 -0.57119,-3.32001 -0.35698,-1.21376 -0.78537,-1.60645 -0.42839,-0.42839 -0.89248,-0.42839 -0.46408,0 -0.92817,0.42839 -0.42839,0.39269 -0.78538,1.60645 -0.32129,1.17811 -0.53548,3.32001 -0.21419,2.1419 -0.21419,5.569 0,3.4271 0.21419,5.5691 0.21419,2.1419 0.53548,3.3557 0.35699,1.178 0.78538,1.6064 0.46409,0.3927 0.92817,0.3927 0.46409,0 0.89248,-0.3927 0.42839,-0.4284 0.78537,-1.6064 0.35699,-1.2138 0.57119,-3.3557 0.21419,-2.142 0.21419,-5.5691 z"
           inkscape:connector-curvature="0" />
        <path
           id="path6160"
           style="font-style:normal;font-variant:normal;font-weight:normal;font-stretch:normal;font-family:BodegaSans-Medium;-inkscape-font-specification:BodegaSans-Medium;letter-spacing:1.5px;fill:#373d4b;fill-opacity:1"
           d="m 287.2745,1021.999 -6.17591,-15.7075 0,15.7075 -3.6413,0 0,-27.55956 1.82065,0 6.14022,15.81466 0,-15.81466 3.67699,0 0,27.55956 -1.82065,0 z"
           inkscape:connector-curvature="0" />
        <path
           id="path6162"
           style="font-style:normal;font-variant:normal;font-weight:normal;font-stretch:normal;font-family:BodegaSans-Medium;-inkscape-font-specification:BodegaSans-Medium;letter-spacing:1.5px;fill:#373d4b;fill-opacity:1"
           d="m 299.90979,997.47385 0,24.52515 -3.78409,0 0,-24.52515 -3.67699,0 0,-3.03441 11.13807,0 0,3.03441 -3.67699,0 z"
           inkscape:connector-curvature="0" />
        <path
           id="path6164"
           style="font-style:normal;font-variant:normal;font-weight:normal;font-stretch:normal;font-family:BodegaSans-Medium;-inkscape-font-specification:BodegaSans-Medium;letter-spacing:1.5px;fill:#373d4b;fill-opacity:1"
           d="m 306.95259,1021.999 0,-9.0675 -1.17806,0 0,-3.0344 1.17806,0 0,-15.45766 9.06754,0 0,3.03441 -5.28345,0 0,12.42325 4.17678,0 0,3.0344 -4.17678,0 0,6.0331 5.28345,0 0,3.0344 -9.06754,0 z"
           inkscape:connector-curvature="0" />
        <path
           id="path6166"
           style="font-style:normal;font-variant:normal;font-weight:normal;font-stretch:normal;font-family:BodegaSans-Medium;-inkscape-font-specification:BodegaSans-Medium;letter-spacing:1.5px;fill:#373d4b;fill-opacity:1"
           d="m 329.49545,1021.999 -6.17592,-15.7075 0,15.7075 -3.64129,0 0,-27.55956 1.82065,0 6.14022,15.81466 0,-15.81466 3.67699,0 0,27.55956 -1.82065,0 z"
           inkscape:connector-curvature="0" />
        <path
           id="path6168"
           style="font-style:normal;font-variant:normal;font-weight:normal;font-stretch:normal;font-family:BodegaSans-Medium;-inkscape-font-specification:BodegaSans-Medium;letter-spacing:1.5px;fill:#373d4b;fill-opacity:1"
           d="m 342.13073,997.47385 0,24.52515 -3.78409,0 0,-24.52515 -3.67699,0 0,-3.03441 11.13807,0 0,3.03441 -3.67699,0 z"
           inkscape:connector-curvature="0" />
        <path
           id="path6170"
           style="font-style:normal;font-variant:normal;font-weight:normal;font-stretch:normal;font-family:BodegaSans-Medium;-inkscape-font-specification:BodegaSans-Medium;letter-spacing:1.5px;fill:#373d4b;fill-opacity:1"
           d="m 364.23247,1021.9276 q -0.2499,0.071 -0.53549,0.1428 -0.49978,0.1071 -1.32086,0.1071 -0.71398,0 -1.57075,-0.1428 -0.82108,-0.1428 -1.67785,-0.6069 -0.82108,-0.4997 -1.60645,-1.4279 -0.78538,-0.9282 -1.39226,-2.4632 -0.60689,-1.5708 -0.96388,-3.8555 -0.35698,-2.2848 -0.35698,-5.4977 0,-3.2129 0.35698,-5.4619 0.35699,-2.2847 0.96388,-3.8198 0.60688,-1.57075 1.39226,-2.46322 0.78537,-0.92818 1.60645,-1.39226 0.85677,-0.49979 1.67785,-0.64258 0.85677,-0.1428 1.57075,-0.1428 0.39269,0 0.71398,0.0357 0.35699,0.0357 0.60688,0.1071 0.28559,0.0714 0.53549,0.10709 l 0,2.96302 q -0.28559,-0.0714 -0.60688,-0.1071 -0.2856,-0.0714 -0.67828,-0.0714 -0.60689,0 -1.35656,0.35699 -0.74968,0.32129 -1.42796,1.46366 -0.64258,1.1067 -1.10667,3.2843 -0.42839,2.1419 -0.42839,5.7832 0,3.677 0.42839,5.8547 0.46409,2.1419 1.14237,3.2843 0.67828,1.1423 1.42795,1.4993 0.74968,0.3213 1.39226,0.3213 0.35699,0 0.64258,-0.036 0.2856,-0.036 0.57119,-0.1071 l 0,2.9273 0,0 z"
           inkscape:connector-curvature="0" />
        <path
           id="path6172"
           style="font-style:normal;font-variant:normal;font-weight:normal;font-stretch:normal;font-family:BodegaSans-Medium;-inkscape-font-specification:BodegaSans-Medium;letter-spacing:1.5px;fill:#373d4b;fill-opacity:1"
           d="m 367.93131,1021.999 0,-9.0675 -1.17807,0 0,-3.0344 1.17807,0 0,-15.45766 9.06753,0 0,3.03441 -5.28344,0 0,12.42325 4.17677,0 0,3.0344 -4.17677,0 0,6.0331 5.28344,0 0,3.0344 -9.06753,0 z"
           inkscape:connector-curvature="0" />
        <path
           id="path6174"
           style="font-style:normal;font-variant:normal;font-weight:normal;font-stretch:normal;font-family:BodegaSans-Medium;-inkscape-font-specification:BodegaSans-Medium;letter-spacing:1.5px;fill:#373d4b;fill-opacity:1"
           d="m 390.47416,1021.999 -6.17591,-15.7075 0,15.7075 -3.6413,0 0,-27.55956 1.82065,0 6.14022,15.81466 0,-15.81466 3.67699,0 0,27.55956 -1.82065,0 z"
           inkscape:connector-curvature="0" />
        <path
           id="path6176"
           style="font-style:normal;font-variant:normal;font-weight:normal;font-stretch:normal;font-family:BodegaSans-Medium;-inkscape-font-specification:BodegaSans-Medium;letter-spacing:1.5px;fill:#373d4b;fill-opacity:1"
           d="m 403.10943,997.47385 0,24.52515 -3.78409,0 0,-24.52515 -3.67699,0 0,-3.03441 11.13807,0 0,3.03441 -3.67699,0 z"
           inkscape:connector-curvature="0" />
        <path
           id="path6178"
           style="font-style:normal;font-variant:normal;font-weight:normal;font-stretch:normal;font-family:BodegaSans-Medium;-inkscape-font-specification:BodegaSans-Medium;letter-spacing:1.5px;fill:#373d4b;fill-opacity:1"
           d="m 410.15225,1021.999 0,-9.0675 -1.17806,0 0,-3.0344 1.17806,0 0,-15.45766 9.06754,0 0,3.03441 -5.28345,0 0,12.42325 4.17678,0 0,3.0344 -4.17678,0 0,6.0331 5.28345,0 0,3.0344 -9.06754,0 z"
           inkscape:connector-curvature="0" />
        <path
           id="path6180"
           style="font-style:normal;font-variant:normal;font-weight:normal;font-stretch:normal;font-family:BodegaSans-Medium;-inkscape-font-specification:BodegaSans-Medium;letter-spacing:1.5px;fill:#373d4b;fill-opacity:1"
           d="m 433.44815,1002.7573 q 0,1.9991 -0.46409,3.4985 -0.42838,1.4993 -1.03527,2.5703 -0.60688,1.071 -1.28516,1.7493 -0.67828,0.6425 -1.14236,0.9638 0.60688,0.7497 1.32086,1.8564 0.71398,1.0709 1.24946,2.4275 0.67828,1.6065 0.89247,3.1772 0.2499,1.5708 0.2499,2.9987 l -3.71269,0 q 0,-1.178 -0.2142,-2.4275 -0.17849,-1.2852 -0.64258,-2.4275 -0.49978,-1.2138 -1.10667,-2.1777 -0.60688,-0.9638 -1.10666,-1.535 l 0,8.5677 -3.78409,0 0,-27.55956 2.96301,0 q 1.49936,0 2.89162,0.42838 1.42795,0.42839 2.49892,1.39226 1.10667,0.96387 1.74925,2.57033 0.67828,1.57079 0.67828,3.92689 z m -3.78409,0.036 q 0,-1.5351 -0.28559,-2.5346 -0.24989,-1.03531 -0.71398,-1.64219 -0.42839,-0.60688 -0.99957,-0.85677 -0.57118,-0.24989 -1.21376,-0.24989 l 0,12.13765 q 0.28559,-0.036 0.82107,-0.4641 0.53549,-0.4284 1.07097,-1.2495 0.53549,-0.821 0.92817,-2.1062 0.39269,-1.2852 0.39269,-3.0344 z"
           inkscape:connector-curvature="0" />
      </g>
    </g>
  </g>
</svg>
